<?xml version="1.0" encoding="UTF-8" standalone="no"?>
<!DOCTYPE svg PUBLIC "-//W3C//DTD SVG 1.1//EN" "http://www.w3.org/Graphics/SVG/1.1/DTD/svg11.dtd">
<svg width="100%" height="100%" viewBox="0 0 512 512" version="1.1" xmlns="http://www.w3.org/2000/svg" xmlns:xlink="http://www.w3.org/1999/xlink" xml:space="preserve" xmlns:serif="http://www.serif.com/" style="fill-rule:evenodd;clip-rule:evenodd;stroke-linecap:round;stroke-linejoin:round;stroke-miterlimit:1.5;">
    <g transform="matrix(1,0,0,1,-1481.66,-547.022)">
        <g transform="matrix(1.44552,0,0,1.75313,-577.807,-324.05)">
            <g transform="matrix(1.31475,0,0,1.22938,-523.288,-175.632)">
                <path d="M1693.03,547.022C1725.08,547.022 1751.06,569.931 1751.06,598.19L1751.06,733.411C1751.06,761.67 1725.08,784.579 1693.03,784.579L1539.69,784.579C1507.64,784.579 1481.66,761.67 1481.66,733.411L1481.66,598.19C1481.66,569.931 1507.64,547.022 1539.69,547.022L1693.03,547.022Z" style="fill:white;"/>
            </g>
        </g>
        <g transform="matrix(1.44552,0,0,1.75313,-577.807,-324.05)">
            <g transform="matrix(0.323596,0,0,0.266817,538.311,-104.167)">
                <g>
                    <g transform="matrix(0.586552,0,0,0.586552,-6849.78,-7958.94)">
                        <path d="M16947.9,18239.5C16947.9,18239.5 16959.6,18414.4 16996.1,18592.2C17032.4,18769.5 17089.8,18941.5 17171.5,18970.7C17259.7,18973.9 17412.7,18879.1 17510.8,18664.9C17592.1,18487.5 17619.8,18196.1 17594.7,18003.4C17682.9,17946.2 17801.9,17943.3 17824,17947.9C17824,17947.9 17925.2,18479 17730.4,18777.9C17650.9,18899.9 17547.1,18943.7 17457,18978.8C17348.2,19021.2 17138.3,19049.1 17064.5,18996.8C16728,18821.5 16712.1,18242.1 16712.1,18242.1C16712.1,18242.1 16873.9,18257.8 16948,18240.3C16948,18240.3 16903.5,17879.3 16882.9,17821.8C16908.5,17832.6 16962,17903.7 17017.4,18012.6C17036.7,18050.6 17081.2,18117.1 17099.9,18156.4C17099.9,18156.4 17194.3,17853.1 17228.5,17782.2C17228.5,17782.2 17259.8,17863.5 17284.9,17964.1C17311,18068.5 17319.5,18174.6 17336.6,18238.1C17336.6,18224.2 17362.7,18070.4 17426.8,17957.6C17514.2,17803.9 17566,17670.4 17576.4,17659.7C17575.9,17689 17576.1,17774.7 17580,17849.7C17583.2,17911.2 17593.9,17972 17594.7,18003.4" style="fill:none;stroke:black;stroke-width:34.1px;"/>
                    </g>
                    <g transform="matrix(0.229037,0.0456792,-0.0655869,0.328855,557.985,-3964.13)">
                        <path d="M17377.1,18971.4C17658.1,18564.1 17643.5,18266.7 17618.3,18074.1" style="fill:none;stroke:black;stroke-width:69.21px;"/>
                    </g>
                </g>
            </g>
        </g>
    </g>
</svg>
