<?xml version="1.0" encoding="UTF-8" standalone="no"?><!DOCTYPE svg PUBLIC "-//W3C//DTD SVG 1.1//EN" "http://www.w3.org/Graphics/SVG/1.1/DTD/svg11.dtd"><svg width="100%" height="100%" viewBox="0 0 490 110" version="1.1" xmlns="http://www.w3.org/2000/svg" xmlns:xlink="http://www.w3.org/1999/xlink" xml:space="preserve" xmlns:serif="http://www.serif.com/" style="fill-rule:evenodd;clip-rule:evenodd;stroke-linecap:round;stroke-linejoin:round;stroke-miterlimit:1.5;"><g><g><g><path d="M19.791,46.717c0,-0 0.916,13.69 3.773,27.606c2.841,13.878 7.334,27.341 13.729,29.626c6.903,0.251 18.879,-7.169 26.558,-23.935c6.363,-13.886 8.531,-36.694 6.567,-51.777c6.903,-4.477 16.218,-4.704 17.947,-4.344c0,-0 7.922,41.57 -7.326,64.966c-6.222,9.549 -14.347,12.977 -21.399,15.724c-8.516,3.319 -24.946,5.503 -30.722,1.409c-26.339,-13.721 -27.583,-59.072 -27.583,-59.072c-0,0 12.664,1.229 18.464,-0.141c-0,0 -3.483,-28.256 -5.096,-32.757c2.004,0.846 6.192,6.411 10.528,14.935c1.511,2.974 4.994,8.179 6.458,11.255c-0,0 7.388,-23.74 10.065,-29.289c0,-0 2.45,6.363 4.415,14.238c2.043,8.171 2.708,16.476 4.047,21.446c-0,-1.088 2.042,-13.126 7.06,-21.955c6.841,-12.031 10.895,-22.48 11.709,-23.317c-0.039,2.293 -0.023,9.001 0.282,14.871c0.251,4.814 1.088,9.573 1.151,12.031" style="fill:none;stroke:#000;stroke-width:2.67px;"/></g><g><path d="M46.836,90.621c12.153,-16.161 14.309,-29.301 15.225,-37.907" style="fill:none;stroke:#000;stroke-width:2.67px;"/></g></g></g><g transform="matrix(1,0,0,1,-332.425,-679.755)"><g transform="matrix(48,0,0,48,452.205,735.612)"><path d="M0.097,-0.727l0.076,-0l0.264,0.633l0.007,0l0.263,-0.633l0.077,-0l0,0.727l-0.062,-0l-0,-0.587l-0.006,-0l-0.245,0.587l-0.061,-0l-0.245,-0.587l-0.006,-0l0,0.587l-0.062,-0l-0,-0.727Z" style="fill-rule:nonzero;"/></g><g transform="matrix(48,0,0,48,493.103,735.612)"><rect x="0.097" y="-0.727" width="0.066" height="0.727" style="fill-rule:nonzero;"/></g><g transform="matrix(48,0,0,48,504.183,735.612)"><path d="M0.097,-0l-0,-0.727l0.066,-0l-0,0.391l0.007,0l0.355,-0.391l0.087,-0l-0.311,0.336l0.309,0.391l-0.081,-0l-0.269,-0.345l-0.097,0.109l-0,0.236l-0.066,-0Z" style="fill-rule:nonzero;"/></g><g transform="matrix(48,0,0,48,534.016,735.612)"><path d="M0.097,-0l-0,-0.727l0.421,-0l0,0.059l-0.355,0l-0,0.274l0.333,0l0,0.06l-0.333,-0l-0,0.274l0.363,0l-0,0.06l-0.429,-0Z" style="fill-rule:nonzero;"/></g><g transform="matrix(48,0,0,48,561.599,735.612)"><path d="M0.097,-0l-0,-0.727l0.066,-0l-0,0.667l0.346,0l0,0.06l-0.412,-0Z" style="fill-rule:nonzero;"/></g><g transform="matrix(48,0,0,48,589.406,735.612)"><path d="M0.098,-0l-0.07,-0l0.265,-0.727l0.071,-0l0.264,0.727l-0.069,-0l-0.229,-0.641l-0.004,-0l-0.228,0.641Zm0.05,-0.279l0.361,0l-0,0.06l-0.361,-0l-0,-0.06Z" style="fill-rule:nonzero;"/></g><g transform="matrix(48,0,0,48,620.699,735.612)"></g><g transform="matrix(48,0,0,48,633.992,735.612)"><path d="M0.097,-0l-0,-0.727l0.245,-0c0.047,-0 0.087,0.008 0.118,0.025c0.032,0.016 0.056,0.039 0.072,0.067c0.015,0.029 0.023,0.062 0.023,0.098c0,0.03 -0.005,0.056 -0.015,0.078c-0.01,0.021 -0.024,0.039 -0.041,0.052c-0.018,0.013 -0.037,0.023 -0.059,0.029l-0,0.005c0.023,0.002 0.046,0.01 0.068,0.025c0.022,0.015 0.04,0.036 0.055,0.062c0.014,0.027 0.021,0.058 0.021,0.095c-0,0.037 -0.008,0.07 -0.025,0.098c-0.016,0.029 -0.041,0.052 -0.075,0.068c-0.033,0.017 -0.076,0.025 -0.128,0.025l-0.259,-0Zm0.066,-0.06l0.193,0c0.056,0 0.097,-0.012 0.124,-0.037c0.027,-0.025 0.04,-0.056 0.04,-0.094c0,-0.027 -0.006,-0.053 -0.02,-0.075c-0.013,-0.023 -0.032,-0.041 -0.056,-0.054c-0.025,-0.013 -0.053,-0.02 -0.086,-0.02l-0.195,0l-0,0.28Zm-0,-0.339l0.185,0c0.029,0 0.054,-0.006 0.075,-0.018c0.022,-0.011 0.039,-0.028 0.051,-0.049c0.012,-0.021 0.018,-0.044 0.018,-0.071c-0,-0.038 -0.013,-0.07 -0.038,-0.094c-0.025,-0.024 -0.062,-0.037 -0.112,-0.037l-0.179,0l-0,0.269Z" style="fill-rule:nonzero;"/></g><g transform="matrix(48,0,0,48,664.165,735.612)"><path d="M0.097,-0l-0,-0.727l0.066,-0l-0,0.667l0.346,0l0,0.06l-0.412,-0Z" style="fill-rule:nonzero;"/></g><g transform="matrix(48,0,0,48,692.453,735.612)"><path d="M0.098,-0l-0.07,-0l0.265,-0.727l0.071,-0l0.264,0.727l-0.069,-0l-0.229,-0.641l-0.004,-0l-0.228,0.641Zm0.05,-0.279l0.361,0l-0,0.06l-0.361,-0l-0,-0.06Z" style="fill-rule:nonzero;"/></g><g transform="matrix(48,0,0,48,723.058,735.612)"><path d="M0.663,-0.727l-0,0.727l-0.065,-0l-0.429,-0.609l-0.006,0l-0,0.609l-0.066,-0l-0,-0.727l0.064,-0l0.431,0.61l0.006,-0l-0,-0.61l0.065,-0Z" style="fill-rule:nonzero;"/></g><g transform="matrix(48,0,0,48,758.138,735.612)"><path d="M0.666,-0.5l-0.067,0c-0.005,-0.025 -0.013,-0.048 -0.026,-0.069c-0.013,-0.021 -0.03,-0.04 -0.049,-0.056c-0.019,-0.016 -0.041,-0.028 -0.066,-0.037c-0.025,-0.008 -0.051,-0.013 -0.08,-0.013c-0.046,0 -0.087,0.012 -0.125,0.036c-0.038,0.024 -0.068,0.059 -0.091,0.105c-0.022,0.047 -0.034,0.103 -0.034,0.17c0,0.068 0.012,0.125 0.034,0.171c0.023,0.046 0.053,0.081 0.091,0.105c0.038,0.024 0.079,0.035 0.125,0.035c0.029,0 0.055,-0.004 0.08,-0.013c0.025,-0.008 0.047,-0.021 0.066,-0.036c0.019,-0.016 0.036,-0.035 0.049,-0.056c0.013,-0.021 0.021,-0.044 0.026,-0.069l0.067,-0c-0.006,0.033 -0.017,0.064 -0.033,0.093c-0.016,0.029 -0.037,0.054 -0.062,0.075c-0.025,0.022 -0.053,0.039 -0.086,0.051c-0.032,0.012 -0.068,0.018 -0.107,0.018c-0.061,-0 -0.115,-0.015 -0.162,-0.046c-0.048,-0.031 -0.085,-0.074 -0.112,-0.13c-0.027,-0.056 -0.04,-0.122 -0.04,-0.198c-0,-0.076 0.013,-0.141 0.04,-0.197c0.027,-0.056 0.064,-0.1 0.112,-0.13c0.047,-0.031 0.101,-0.046 0.162,-0.046c0.039,-0 0.075,0.006 0.107,0.018c0.033,0.012 0.061,0.029 0.086,0.05c0.025,0.022 0.046,0.047 0.062,0.076c0.016,0.028 0.027,0.059 0.033,0.093Z" style="fill-rule:nonzero;"/></g><g transform="matrix(48,0,0,48,792.084,735.612)"><path d="M0.097,-0l-0,-0.727l0.066,-0l-0,0.391l0.007,0l0.355,-0.391l0.087,-0l-0.311,0.336l0.309,0.391l-0.081,-0l-0.269,-0.345l-0.097,0.109l-0,0.236l-0.066,-0Z" style="fill-rule:nonzero;"/></g><g transform="matrix(48,0,0,48,823.084,735.612)"></g><g transform="matrix(48,0,0,48,452.205,783.612)"><path d="M0.097,-0l-0,-0.727l0.066,-0l-0,0.391l0.007,0l0.355,-0.391l0.087,-0l-0.311,0.336l0.309,0.391l-0.081,-0l-0.269,-0.345l-0.097,0.109l-0,0.236l-0.066,-0Z" style="fill-rule:nonzero;"/></g><g transform="matrix(48,0,0,48,482.038,783.612)"><path d="M0.581,-0.727l0.067,-0l-0,0.481c-0,0.05 -0.012,0.094 -0.035,0.133c-0.023,0.039 -0.055,0.069 -0.097,0.092c-0.041,0.022 -0.089,0.033 -0.144,0.033c-0.054,0 -0.102,-0.011 -0.144,-0.033c-0.041,-0.023 -0.074,-0.053 -0.097,-0.092c-0.023,-0.039 -0.034,-0.083 -0.034,-0.133l-0,-0.481l0.066,-0l-0,0.477c-0,0.038 0.009,0.073 0.026,0.103c0.017,0.03 0.042,0.054 0.073,0.071c0.031,0.017 0.068,0.026 0.11,0.026c0.042,-0 0.079,-0.009 0.111,-0.026c0.031,-0.017 0.055,-0.041 0.073,-0.071c0.017,-0.03 0.025,-0.065 0.025,-0.103l0,-0.477Z" style="fill-rule:nonzero;"/></g><g transform="matrix(48,0,0,48,514.951,783.612)"><path d="M0.663,-0.727l-0,0.727l-0.065,-0l-0.429,-0.609l-0.006,0l-0,0.609l-0.066,-0l-0,-0.727l0.064,-0l0.431,0.61l0.006,-0l-0,-0.61l0.065,-0Z" style="fill-rule:nonzero;"/></g><g transform="matrix(48,0,0,48,549.551,783.612)"><path d="M0.491,-0.545c-0.004,-0.041 -0.021,-0.073 -0.053,-0.097c-0.032,-0.024 -0.072,-0.036 -0.12,-0.036c-0.034,-0 -0.063,0.006 -0.089,0.017c-0.026,0.012 -0.046,0.028 -0.06,0.049c-0.015,0.02 -0.022,0.043 -0.022,0.069c-0,0.019 0.004,0.036 0.012,0.051c0.008,0.014 0.02,0.027 0.034,0.037c0.014,0.01 0.029,0.019 0.046,0.026c0.018,0.008 0.035,0.014 0.053,0.019l0.076,0.022c0.023,0.006 0.047,0.014 0.07,0.024c0.023,0.01 0.044,0.023 0.064,0.038c0.019,0.015 0.034,0.033 0.046,0.055c0.012,0.022 0.018,0.048 0.018,0.078c-0,0.039 -0.01,0.074 -0.03,0.105c-0.02,0.031 -0.049,0.055 -0.087,0.073c-0.038,0.018 -0.083,0.027 -0.136,0.027c-0.049,0 -0.092,-0.008 -0.128,-0.024c-0.037,-0.017 -0.065,-0.039 -0.086,-0.069c-0.021,-0.029 -0.033,-0.062 -0.036,-0.101l0.069,0c0.002,0.029 0.011,0.053 0.028,0.073c0.017,0.02 0.038,0.035 0.065,0.045c0.026,0.011 0.056,0.016 0.088,0.016c0.037,-0 0.069,-0.006 0.097,-0.019c0.029,-0.012 0.051,-0.029 0.067,-0.051c0.016,-0.022 0.024,-0.047 0.024,-0.076c0,-0.025 -0.006,-0.046 -0.019,-0.062c-0.013,-0.017 -0.03,-0.031 -0.053,-0.042c-0.023,-0.012 -0.049,-0.022 -0.08,-0.031l-0.087,-0.025c-0.057,-0.017 -0.101,-0.041 -0.132,-0.071c-0.032,-0.03 -0.048,-0.068 -0.048,-0.115c0,-0.039 0.011,-0.073 0.032,-0.103c0.021,-0.03 0.049,-0.053 0.085,-0.07c0.036,-0.016 0.076,-0.025 0.121,-0.025c0.045,0 0.085,0.009 0.12,0.025c0.035,0.017 0.062,0.04 0.083,0.069c0.02,0.029 0.031,0.062 0.033,0.099l-0.065,-0Z" style="fill-rule:nonzero;"/></g><g transform="matrix(48,0,0,48,578.381,783.612)"><path d="M0.053,-0.668l-0,-0.059l0.527,-0l0,0.059l-0.231,0l0,0.668l-0.066,-0l0,-0.668l-0.23,0Z" style="fill-rule:nonzero;"/></g><g transform="matrix(48,0,0,48,608.81,783.612)"><path d="M0.053,-0.668l-0,-0.059l0.527,-0l0,0.059l-0.231,0l0,0.668l-0.066,-0l0,-0.668l-0.23,0Z" style="fill-rule:nonzero;"/></g><g transform="matrix(48,0,0,48,638.279,783.612)"><path d="M0.097,-0l-0,-0.727l0.066,-0l-0,0.333l0.413,0l-0,-0.333l0.066,-0l0,0.727l-0.066,-0l-0,-0.334l-0.413,-0l-0,0.334l-0.066,-0Z" style="fill-rule:nonzero;"/></g><g transform="matrix(48,0,0,48,671.399,783.612)"><path d="M0.097,-0l-0,-0.727l0.421,-0l0,0.059l-0.355,0l-0,0.274l0.333,0l0,0.06l-0.333,-0l-0,0.274l0.363,0l-0,0.06l-0.429,-0Z" style="fill-rule:nonzero;"/></g><g transform="matrix(48,0,0,48,698.022,783.612)"><path d="M0.097,-0l-0,-0.727l0.234,-0c0.052,-0 0.095,0.009 0.13,0.028c0.035,0.018 0.061,0.044 0.078,0.077c0.018,0.032 0.027,0.07 0.027,0.113c-0,0.042 -0.009,0.079 -0.027,0.112c-0.017,0.032 -0.043,0.057 -0.078,0.076c-0.035,0.018 -0.077,0.027 -0.129,0.027l-0.199,-0l-0,-0.061l0.197,0c0.039,0 0.07,-0.006 0.095,-0.019c0.025,-0.012 0.044,-0.03 0.057,-0.053c0.012,-0.023 0.018,-0.051 0.018,-0.082c0,-0.032 -0.006,-0.06 -0.018,-0.084c-0.013,-0.024 -0.032,-0.042 -0.057,-0.055c-0.025,-0.013 -0.057,-0.02 -0.095,-0.02l-0.167,0l-0,0.668l-0.066,-0Zm0.32,-0.328l0.179,0.328l-0.077,-0l-0.177,-0.328l0.075,-0Z" style="fill-rule:nonzero;"/></g><g transform="matrix(48,0,0,48,727.903,783.612)"><path d="M0.098,-0l-0.07,-0l0.265,-0.727l0.071,-0l0.264,0.727l-0.069,-0l-0.229,-0.641l-0.004,-0l-0.228,0.641Zm0.05,-0.279l0.361,0l-0,0.06l-0.361,-0l-0,-0.06Z" style="fill-rule:nonzero;"/></g><g transform="matrix(48,0,0,48,757.548,783.612)"><path d="M0.097,-0l-0,-0.727l0.234,-0c0.052,-0 0.095,0.01 0.13,0.029c0.035,0.02 0.061,0.047 0.078,0.081c0.018,0.034 0.027,0.072 0.027,0.114c-0,0.042 -0.009,0.081 -0.027,0.115c-0.017,0.034 -0.043,0.06 -0.078,0.08c-0.034,0.02 -0.077,0.03 -0.129,0.03l-0.184,0l-0,-0.06l0.182,0c0.039,0 0.07,-0.007 0.095,-0.021c0.026,-0.015 0.044,-0.034 0.057,-0.059c0.012,-0.025 0.018,-0.053 0.018,-0.085c0,-0.032 -0.006,-0.06 -0.018,-0.085c-0.013,-0.025 -0.032,-0.044 -0.057,-0.058c-0.025,-0.015 -0.057,-0.022 -0.095,-0.022l-0.167,0l-0,0.668l-0.066,-0Z" style="fill-rule:nonzero;"/></g><g transform="matrix(48,0,0,48,785.716,783.612)"><rect x="0.097" y="-0.727" width="0.066" height="0.727" style="fill-rule:nonzero;"/></g><g transform="matrix(48,0,0,48,796.796,783.612)"><path d="M0.097,-0l-0,-0.727l0.421,-0l0,0.059l-0.355,0l-0,0.274l0.333,0l0,0.06l-0.333,-0l-0,0.274l0.363,0l-0,0.06l-0.429,-0Z" style="fill-rule:nonzero;"/></g><g transform="matrix(48,0,0,48,825.546,783.612)"></g></g></svg>